<svg xmlns="http://www.w3.org/2000/svg" viewBox="0 0 1400 90" fill="none" preserveAspectRatio="none" style="width: 100%; height: 100%;">
  <defs>
    <linearGradient id="cordGrad" x1="0%" y1="0%" x2="0%" y2="100%">
      <stop offset="0%" stop-color="#34D399" />
      <stop offset="30%" stop-color="#10B981" />
      <stop offset="70%" stop-color="#059669" />
      <stop offset="100%" stop-color="#047857" />
    </linearGradient>
    <filter id="cordShadow" x="-10%" y="-10%" width="120%" height="150%">
      <feDropShadow dx="0" dy="6" stdDeviation="4" flood-color="#047857" flood-opacity="0.2" />
    </filter>
  </defs>
  <path d="M 70 5 Q 75 35, 110 50 Q 145 65, 180 55" stroke="url(#cordGrad)" stroke-width="8.5" stroke-linecap="round" filter="url(#cordShadow)" />
  <path d="M 173.7 57 C 171 83, 185.4 83, 189 53" stroke="#047857" stroke-width="7.5" stroke-linecap="round" opacity="0.85" />
  <path d="M 185.7 57 C 183 83, 197.4 83, 201 53" stroke="#047857" stroke-width="7.5" stroke-linecap="round" opacity="0.85" />
  <path d="M 197.7 57 C 195 83, 209.4 83, 213 53" stroke="#047857" stroke-width="7.5" stroke-linecap="round" opacity="0.85" />
  <path d="M 209.7 57 C 207 83, 221.4 83, 225 53" stroke="#047857" stroke-width="7.5" stroke-linecap="round" opacity="0.85" />
  <path d="M 221.7 57 C 219 83, 233.4 83, 237 53" stroke="#047857" stroke-width="7.5" stroke-linecap="round" opacity="0.85" />
  <path d="M 233.7 57 C 231 83, 245.4 83, 249 53" stroke="#047857" stroke-width="7.5" stroke-linecap="round" opacity="0.85" />
  <path d="M 245.7 57 C 243 83, 257.4 83, 261 53" stroke="#047857" stroke-width="7.5" stroke-linecap="round" opacity="0.85" />
  <path d="M 257.7 57 C 255 83, 269.4 83, 273 53" stroke="#047857" stroke-width="7.5" stroke-linecap="round" opacity="0.85" />
  <path d="M 269.7 57 C 267 83, 281.4 83, 285 53" stroke="#047857" stroke-width="7.5" stroke-linecap="round" opacity="0.85" />
  <path d="M 281.7 57 C 279 83, 293.4 83, 297 53" stroke="#047857" stroke-width="7.5" stroke-linecap="round" opacity="0.85" />
  <path d="M 293.7 57 C 291 83, 305.4 83, 309 53" stroke="#047857" stroke-width="7.5" stroke-linecap="round" opacity="0.85" />
  <path d="M 305.7 57 C 303 83, 317.4 83, 321 53" stroke="#047857" stroke-width="7.5" stroke-linecap="round" opacity="0.85" />
  <path d="M 317.7 57 C 315 83, 329.4 83, 333 53" stroke="#047857" stroke-width="7.5" stroke-linecap="round" opacity="0.85" />
  <path d="M 329.7 57 C 327 83, 341.4 83, 345 53" stroke="#047857" stroke-width="7.5" stroke-linecap="round" opacity="0.85" />
  <path d="M 341.7 57 C 339 83, 353.4 83, 357 53" stroke="#047857" stroke-width="7.5" stroke-linecap="round" opacity="0.85" />
  <path d="M 353.7 57 C 351 83, 365.4 83, 369 53" stroke="#047857" stroke-width="7.5" stroke-linecap="round" opacity="0.85" />
  <path d="M 365.7 57 C 363 83, 377.4 83, 381 53" stroke="#047857" stroke-width="7.5" stroke-linecap="round" opacity="0.85" />
  <path d="M 377.7 57 C 375 83, 389.4 83, 393 53" stroke="#047857" stroke-width="7.5" stroke-linecap="round" opacity="0.85" />
  <path d="M 389.7 57 C 387 83, 401.4 83, 405 53" stroke="#047857" stroke-width="7.5" stroke-linecap="round" opacity="0.85" />
  <path d="M 401.7 57 C 399 83, 413.4 83, 417 53" stroke="#047857" stroke-width="7.5" stroke-linecap="round" opacity="0.85" />
  <path d="M 413.7 57 C 411 83, 425.4 83, 429 53" stroke="#047857" stroke-width="7.5" stroke-linecap="round" opacity="0.85" />
  <path d="M 425.7 57 C 423 83, 437.4 83, 441 53" stroke="#047857" stroke-width="7.5" stroke-linecap="round" opacity="0.85" />
  <path d="M 437.7 57 C 435 83, 449.4 83, 453 53" stroke="#047857" stroke-width="7.5" stroke-linecap="round" opacity="0.85" />
  <path d="M 449.7 57 C 447 83, 461.4 83, 465 53" stroke="#047857" stroke-width="7.5" stroke-linecap="round" opacity="0.85" />
  <path d="M 461.7 57 C 459 83, 473.4 83, 477 53" stroke="#047857" stroke-width="7.5" stroke-linecap="round" opacity="0.85" />
  <path d="M 473.7 57 C 471 83, 485.4 83, 489 53" stroke="#047857" stroke-width="7.5" stroke-linecap="round" opacity="0.85" />
  <path d="M 485.7 57 C 483 83, 497.4 83, 501 53" stroke="#047857" stroke-width="7.5" stroke-linecap="round" opacity="0.85" />
  <path d="M 497.7 57 C 495 83, 509.4 83, 513 53" stroke="#047857" stroke-width="7.5" stroke-linecap="round" opacity="0.85" />
  <path d="M 509.7 57 C 507 83, 521.4 83, 525 53" stroke="#047857" stroke-width="7.5" stroke-linecap="round" opacity="0.85" />
  <path d="M 521.7 57 C 519 83, 533.4 83, 537 53" stroke="#047857" stroke-width="7.5" stroke-linecap="round" opacity="0.85" />
  <path d="M 533.7 57 C 531 83, 545.4 83, 549 53" stroke="#047857" stroke-width="7.5" stroke-linecap="round" opacity="0.85" />
  <path d="M 545.7 57 C 543 83, 557.4 83, 561 53" stroke="#047857" stroke-width="7.5" stroke-linecap="round" opacity="0.85" />
  <path d="M 557.7 57 C 555 83, 569.4 83, 573 53" stroke="#047857" stroke-width="7.5" stroke-linecap="round" opacity="0.85" />
  <path d="M 569.7 57 C 567 83, 581.4 83, 585 53" stroke="#047857" stroke-width="7.5" stroke-linecap="round" opacity="0.85" />
  <path d="M 581.7 57 C 579 83, 593.4 83, 597 53" stroke="#047857" stroke-width="7.5" stroke-linecap="round" opacity="0.85" />
  <path d="M 593.7 57 C 591 83, 605.4 83, 609 53" stroke="#047857" stroke-width="7.5" stroke-linecap="round" opacity="0.85" />
  <path d="M 605.7 57 C 603 83, 617.4 83, 621 53" stroke="#047857" stroke-width="7.5" stroke-linecap="round" opacity="0.85" />
  <path d="M 617.7 57 C 615 83, 629.4 83, 633 53" stroke="#047857" stroke-width="7.5" stroke-linecap="round" opacity="0.85" />
  <path d="M 629.7 57 C 627 83, 641.4 83, 645 53" stroke="#047857" stroke-width="7.5" stroke-linecap="round" opacity="0.85" />
  <path d="M 641.7 57 C 639 83, 653.4 83, 657 53" stroke="#047857" stroke-width="7.5" stroke-linecap="round" opacity="0.85" />
  <path d="M 653.7 57 C 651 83, 665.4 83, 669 53" stroke="#047857" stroke-width="7.5" stroke-linecap="round" opacity="0.85" />
  <path d="M 665.7 57 C 663 83, 677.4 83, 681 53" stroke="#047857" stroke-width="7.5" stroke-linecap="round" opacity="0.85" />
  <path d="M 677.7 57 C 675 83, 689.4 83, 693 53" stroke="#047857" stroke-width="7.5" stroke-linecap="round" opacity="0.85" />
  <path d="M 689.7 57 C 687 83, 701.4 83, 705 53" stroke="#047857" stroke-width="7.5" stroke-linecap="round" opacity="0.85" />
  <path d="M 701.7 57 C 699 83, 713.4 83, 717 53" stroke="#047857" stroke-width="7.5" stroke-linecap="round" opacity="0.85" />
  <path d="M 713.7 57 C 711 83, 725.4 83, 729 53" stroke="#047857" stroke-width="7.5" stroke-linecap="round" opacity="0.85" />
  <path d="M 725.7 57 C 723 83, 737.4 83, 741 53" stroke="#047857" stroke-width="7.5" stroke-linecap="round" opacity="0.85" />
  <path d="M 737.7 57 C 735 83, 749.4 83, 753 53" stroke="#047857" stroke-width="7.5" stroke-linecap="round" opacity="0.85" />
  <path d="M 749.7 57 C 747 83, 761.4 83, 765 53" stroke="#047857" stroke-width="7.5" stroke-linecap="round" opacity="0.85" />
  <path d="M 761.7 57 C 759 83, 773.4 83, 777 53" stroke="#047857" stroke-width="7.5" stroke-linecap="round" opacity="0.85" />
  <path d="M 773.7 57 C 771 83, 785.4 83, 789 53" stroke="#047857" stroke-width="7.5" stroke-linecap="round" opacity="0.85" />
  <path d="M 785.7 57 C 783 83, 797.4 83, 801 53" stroke="#047857" stroke-width="7.5" stroke-linecap="round" opacity="0.85" />
  <path d="M 797.7 57 C 795 83, 809.4 83, 813 53" stroke="#047857" stroke-width="7.5" stroke-linecap="round" opacity="0.85" />
  <path d="M 809.7 57 C 807 83, 821.4 83, 825 53" stroke="#047857" stroke-width="7.5" stroke-linecap="round" opacity="0.85" />
  <path d="M 821.7 57 C 819 83, 833.4 83, 837 53" stroke="#047857" stroke-width="7.5" stroke-linecap="round" opacity="0.85" />
  <path d="M 833.7 57 C 831 83, 845.4 83, 849 53" stroke="#047857" stroke-width="7.5" stroke-linecap="round" opacity="0.85" />
  <path d="M 845.7 57 C 843 83, 857.4 83, 861 53" stroke="#047857" stroke-width="7.5" stroke-linecap="round" opacity="0.85" />
  <path d="M 857.7 57 C 855 83, 869.4 83, 873 53" stroke="#047857" stroke-width="7.5" stroke-linecap="round" opacity="0.85" />
  <path d="M 869.7 57 C 867 83, 881.4 83, 885 53" stroke="#047857" stroke-width="7.5" stroke-linecap="round" opacity="0.85" />
  <path d="M 881.7 57 C 879 83, 893.4 83, 897 53" stroke="#047857" stroke-width="7.5" stroke-linecap="round" opacity="0.85" />
  <path d="M 893.7 57 C 891 83, 905.4 83, 909 53" stroke="#047857" stroke-width="7.5" stroke-linecap="round" opacity="0.85" />
  <path d="M 905.7 57 C 903 83, 917.4 83, 921 53" stroke="#047857" stroke-width="7.5" stroke-linecap="round" opacity="0.85" />
  <path d="M 917.7 57 C 915 83, 929.4 83, 933 53" stroke="#047857" stroke-width="7.5" stroke-linecap="round" opacity="0.85" />
  <path d="M 929.7 57 C 927 83, 941.4 83, 945 53" stroke="#047857" stroke-width="7.5" stroke-linecap="round" opacity="0.85" />
  <path d="M 941.7 57 C 939 83, 953.4 83, 957 53" stroke="#047857" stroke-width="7.5" stroke-linecap="round" opacity="0.85" />
  <path d="M 953.7 57 C 951 83, 965.4 83, 969 53" stroke="#047857" stroke-width="7.5" stroke-linecap="round" opacity="0.85" />
  <path d="M 965.7 57 C 963 83, 977.4 83, 981 53" stroke="#047857" stroke-width="7.5" stroke-linecap="round" opacity="0.85" />
  <path d="M 977.7 57 C 975 83, 989.4 83, 993 53" stroke="#047857" stroke-width="7.5" stroke-linecap="round" opacity="0.85" />
  <path d="M 989.7 57 C 987 83, 1001.4 83, 1005 53" stroke="#047857" stroke-width="7.5" stroke-linecap="round" opacity="0.85" />
  <path d="M 1001.7 57 C 999 83, 1013.4 83, 1017 53" stroke="#047857" stroke-width="7.5" stroke-linecap="round" opacity="0.85" />
  <path d="M 1013.7 57 C 1011 83, 1025.4 83, 1029 53" stroke="#047857" stroke-width="7.5" stroke-linecap="round" opacity="0.85" />
  <path d="M 1025.7 57 C 1023 83, 1037.4 83, 1041 53" stroke="#047857" stroke-width="7.5" stroke-linecap="round" opacity="0.85" />
  <path d="M 1037.7 57 C 1035 83, 1049.4 83, 1053 53" stroke="#047857" stroke-width="7.5" stroke-linecap="round" opacity="0.85" />
  <path d="M 1049.7 57 C 1047 83, 1061.4 83, 1065 53" stroke="#047857" stroke-width="7.5" stroke-linecap="round" opacity="0.85" />
  <path d="M 1061.7 57 C 1059 83, 1073.4 83, 1077 53" stroke="#047857" stroke-width="7.5" stroke-linecap="round" opacity="0.85" />
  <path d="M 1073.7 57 C 1071 83, 1085.4 83, 1089 53" stroke="#047857" stroke-width="7.5" stroke-linecap="round" opacity="0.85" />
  <path d="M 1085.7 57 C 1083 83, 1097.4 83, 1101 53" stroke="#047857" stroke-width="7.5" stroke-linecap="round" opacity="0.85" />
  <path d="M 1097.7 57 C 1095 83, 1109.4 83, 1113 53" stroke="#047857" stroke-width="7.5" stroke-linecap="round" opacity="0.85" />
  <path d="M 1109.7 57 C 1107 83, 1121.4 83, 1125 53" stroke="#047857" stroke-width="7.5" stroke-linecap="round" opacity="0.85" />
  <path d="M 1121.7 57 C 1119 83, 1133.4 83, 1137 53" stroke="#047857" stroke-width="7.5" stroke-linecap="round" opacity="0.85" />
  <path d="M 1133.7 57 C 1131 83, 1145.4 83, 1149 53" stroke="#047857" stroke-width="7.5" stroke-linecap="round" opacity="0.85" />
  <path d="M 1145.7 57 C 1143 83, 1157.4 83, 1161 53" stroke="#047857" stroke-width="7.5" stroke-linecap="round" opacity="0.85" />
  <path d="M 1157.7 57 C 1155 83, 1169.4 83, 1173 53" stroke="#047857" stroke-width="7.5" stroke-linecap="round" opacity="0.85" />
  <path d="M 1169.7 57 C 1167 83, 1181.4 83, 1185 53" stroke="#047857" stroke-width="7.5" stroke-linecap="round" opacity="0.85" />
  <path d="M 1181.7 57 C 1179 83, 1193.4 83, 1197 53" stroke="#047857" stroke-width="7.5" stroke-linecap="round" opacity="0.85" />
  <path d="M 1193.7 57 C 1191 83, 1205.4 83, 1209 53" stroke="#047857" stroke-width="7.5" stroke-linecap="round" opacity="0.85" />
  <path d="M 1205.7 57 C 1203 83, 1217.4 83, 1221 53" stroke="#047857" stroke-width="7.5" stroke-linecap="round" opacity="0.85" />
  <path d="M 1217.7 57 C 1215 83, 1229.4 83, 1233 53" stroke="#047857" stroke-width="7.5" stroke-linecap="round" opacity="0.85" />
  <path d="M 1229.7 57 C 1227 83, 1241.4 83, 1245 53" stroke="#047857" stroke-width="7.5" stroke-linecap="round" opacity="0.85" />
  <path d="M 1241.7 57 C 1239 83, 1253.4 83, 1257 53" stroke="#047857" stroke-width="7.5" stroke-linecap="round" opacity="0.85" />
  <path d="M 1253.7 57 C 1251 83, 1265.4 83, 1269 53" stroke="#047857" stroke-width="7.5" stroke-linecap="round" opacity="0.85" />
  <path d="M 1265.7 57 C 1263 83, 1277.4 83, 1281 53" stroke="#047857" stroke-width="7.5" stroke-linecap="round" opacity="0.85" />
  <path d="M 1277.7 57 C 1275 83, 1289.4 83, 1293 53" stroke="#047857" stroke-width="7.5" stroke-linecap="round" opacity="0.85" />
  <path d="M 1289.7 57 C 1287 83, 1301.4 83, 1305 53" stroke="#047857" stroke-width="7.5" stroke-linecap="round" opacity="0.85" />
  <path d="M 1301.7 57 C 1299 83, 1313.4 83, 1317 53" stroke="#047857" stroke-width="7.5" stroke-linecap="round" opacity="0.85" />
  <path d="M 1313.7 57 C 1311 83, 1325.4 83, 1329 53" stroke="#047857" stroke-width="7.5" stroke-linecap="round" opacity="0.85" />
  <path d="M 1325.7 57 C 1323 83, 1337.4 83, 1341 53" stroke="#047857" stroke-width="7.5" stroke-linecap="round" opacity="0.85" />
  <path d="M 1337.7 57 C 1335 83, 1349.4 83, 1353 53" stroke="#047857" stroke-width="7.5" stroke-linecap="round" opacity="0.85" />
  <path d="M 1349.7 57 C 1347 83, 1361.4 83, 1365 53" stroke="#047857" stroke-width="7.5" stroke-linecap="round" opacity="0.85" />
  <path d="M 1361.7 57 C 1359 83, 1373.4 83, 1377 53" stroke="#047857" stroke-width="7.5" stroke-linecap="round" opacity="0.85" />
  <path d="M 1373.7 57 C 1371 83, 1385.4 83, 1389 53" stroke="#047857" stroke-width="7.5" stroke-linecap="round" opacity="0.85" />
  <path d="M 1385.7 57 C 1383 83, 1397.4 83, 1401 53" stroke="#047857" stroke-width="7.5" stroke-linecap="round" opacity="0.85" />
  <path d="M 1397.7 57 C 1395 83, 1409.4 83, 1413 53" stroke="#047857" stroke-width="7.5" stroke-linecap="round" opacity="0.85" />
  <path d="M 1409.7 57 C 1407 83, 1421.4 83, 1425 53" stroke="#047857" stroke-width="7.5" stroke-linecap="round" opacity="0.85" />
  <path d="M 171 53 C 174.6 27, 189 27, 187.2 59" stroke="url(#cordGrad)" stroke-width="8" stroke-linecap="round" filter="url(#cordShadow)" />
  <path d="M 183 53 C 186.6 27, 201 27, 199.2 59" stroke="url(#cordGrad)" stroke-width="8" stroke-linecap="round" filter="url(#cordShadow)" />
  <path d="M 195 53 C 198.6 27, 213 27, 211.2 59" stroke="url(#cordGrad)" stroke-width="8" stroke-linecap="round" filter="url(#cordShadow)" />
  <path d="M 207 53 C 210.6 27, 225 27, 223.2 59" stroke="url(#cordGrad)" stroke-width="8" stroke-linecap="round" filter="url(#cordShadow)" />
  <path d="M 219 53 C 222.6 27, 237 27, 235.2 59" stroke="url(#cordGrad)" stroke-width="8" stroke-linecap="round" filter="url(#cordShadow)" />
  <path d="M 231 53 C 234.6 27, 249 27, 247.2 59" stroke="url(#cordGrad)" stroke-width="8" stroke-linecap="round" filter="url(#cordShadow)" />
  <path d="M 243 53 C 246.6 27, 261 27, 259.2 59" stroke="url(#cordGrad)" stroke-width="8" stroke-linecap="round" filter="url(#cordShadow)" />
  <path d="M 255 53 C 258.6 27, 273 27, 271.2 59" stroke="url(#cordGrad)" stroke-width="8" stroke-linecap="round" filter="url(#cordShadow)" />
  <path d="M 267 53 C 270.6 27, 285 27, 283.2 59" stroke="url(#cordGrad)" stroke-width="8" stroke-linecap="round" filter="url(#cordShadow)" />
  <path d="M 279 53 C 282.6 27, 297 27, 295.2 59" stroke="url(#cordGrad)" stroke-width="8" stroke-linecap="round" filter="url(#cordShadow)" />
  <path d="M 291 53 C 294.6 27, 309 27, 307.2 59" stroke="url(#cordGrad)" stroke-width="8" stroke-linecap="round" filter="url(#cordShadow)" />
  <path d="M 303 53 C 306.6 27, 321 27, 319.2 59" stroke="url(#cordGrad)" stroke-width="8" stroke-linecap="round" filter="url(#cordShadow)" />
  <path d="M 315 53 C 318.6 27, 333 27, 331.2 59" stroke="url(#cordGrad)" stroke-width="8" stroke-linecap="round" filter="url(#cordShadow)" />
  <path d="M 327 53 C 330.6 27, 345 27, 343.2 59" stroke="url(#cordGrad)" stroke-width="8" stroke-linecap="round" filter="url(#cordShadow)" />
  <path d="M 339 53 C 342.6 27, 357 27, 355.2 59" stroke="url(#cordGrad)" stroke-width="8" stroke-linecap="round" filter="url(#cordShadow)" />
  <path d="M 351 53 C 354.6 27, 369 27, 367.2 59" stroke="url(#cordGrad)" stroke-width="8" stroke-linecap="round" filter="url(#cordShadow)" />
  <path d="M 363 53 C 366.6 27, 381 27, 379.2 59" stroke="url(#cordGrad)" stroke-width="8" stroke-linecap="round" filter="url(#cordShadow)" />
  <path d="M 375 53 C 378.6 27, 393 27, 391.2 59" stroke="url(#cordGrad)" stroke-width="8" stroke-linecap="round" filter="url(#cordShadow)" />
  <path d="M 387 53 C 390.6 27, 405 27, 403.2 59" stroke="url(#cordGrad)" stroke-width="8" stroke-linecap="round" filter="url(#cordShadow)" />
  <path d="M 399 53 C 402.6 27, 417 27, 415.2 59" stroke="url(#cordGrad)" stroke-width="8" stroke-linecap="round" filter="url(#cordShadow)" />
  <path d="M 411 53 C 414.6 27, 429 27, 427.2 59" stroke="url(#cordGrad)" stroke-width="8" stroke-linecap="round" filter="url(#cordShadow)" />
  <path d="M 423 53 C 426.6 27, 441 27, 439.2 59" stroke="url(#cordGrad)" stroke-width="8" stroke-linecap="round" filter="url(#cordShadow)" />
  <path d="M 435 53 C 438.6 27, 453 27, 451.2 59" stroke="url(#cordGrad)" stroke-width="8" stroke-linecap="round" filter="url(#cordShadow)" />
  <path d="M 447 53 C 450.6 27, 465 27, 463.2 59" stroke="url(#cordGrad)" stroke-width="8" stroke-linecap="round" filter="url(#cordShadow)" />
  <path d="M 459 53 C 462.6 27, 477 27, 475.2 59" stroke="url(#cordGrad)" stroke-width="8" stroke-linecap="round" filter="url(#cordShadow)" />
  <path d="M 471 53 C 474.6 27, 489 27, 487.2 59" stroke="url(#cordGrad)" stroke-width="8" stroke-linecap="round" filter="url(#cordShadow)" />
  <path d="M 483 53 C 486.6 27, 501 27, 499.2 59" stroke="url(#cordGrad)" stroke-width="8" stroke-linecap="round" filter="url(#cordShadow)" />
  <path d="M 495 53 C 498.6 27, 513 27, 511.2 59" stroke="url(#cordGrad)" stroke-width="8" stroke-linecap="round" filter="url(#cordShadow)" />
  <path d="M 507 53 C 510.6 27, 525 27, 523.2 59" stroke="url(#cordGrad)" stroke-width="8" stroke-linecap="round" filter="url(#cordShadow)" />
  <path d="M 519 53 C 522.6 27, 537 27, 535.2 59" stroke="url(#cordGrad)" stroke-width="8" stroke-linecap="round" filter="url(#cordShadow)" />
  <path d="M 531 53 C 534.6 27, 549 27, 547.2 59" stroke="url(#cordGrad)" stroke-width="8" stroke-linecap="round" filter="url(#cordShadow)" />
  <path d="M 543 53 C 546.6 27, 561 27, 559.2 59" stroke="url(#cordGrad)" stroke-width="8" stroke-linecap="round" filter="url(#cordShadow)" />
  <path d="M 555 53 C 558.6 27, 573 27, 571.2 59" stroke="url(#cordGrad)" stroke-width="8" stroke-linecap="round" filter="url(#cordShadow)" />
  <path d="M 567 53 C 570.6 27, 585 27, 583.2 59" stroke="url(#cordGrad)" stroke-width="8" stroke-linecap="round" filter="url(#cordShadow)" />
  <path d="M 579 53 C 582.6 27, 597 27, 595.2 59" stroke="url(#cordGrad)" stroke-width="8" stroke-linecap="round" filter="url(#cordShadow)" />
  <path d="M 591 53 C 594.6 27, 609 27, 607.2 59" stroke="url(#cordGrad)" stroke-width="8" stroke-linecap="round" filter="url(#cordShadow)" />
  <path d="M 603 53 C 606.6 27, 621 27, 619.2 59" stroke="url(#cordGrad)" stroke-width="8" stroke-linecap="round" filter="url(#cordShadow)" />
  <path d="M 615 53 C 618.6 27, 633 27, 631.2 59" stroke="url(#cordGrad)" stroke-width="8" stroke-linecap="round" filter="url(#cordShadow)" />
  <path d="M 627 53 C 630.6 27, 645 27, 643.2 59" stroke="url(#cordGrad)" stroke-width="8" stroke-linecap="round" filter="url(#cordShadow)" />
  <path d="M 639 53 C 642.6 27, 657 27, 655.2 59" stroke="url(#cordGrad)" stroke-width="8" stroke-linecap="round" filter="url(#cordShadow)" />
  <path d="M 651 53 C 654.6 27, 669 27, 667.2 59" stroke="url(#cordGrad)" stroke-width="8" stroke-linecap="round" filter="url(#cordShadow)" />
  <path d="M 663 53 C 666.6 27, 681 27, 679.2 59" stroke="url(#cordGrad)" stroke-width="8" stroke-linecap="round" filter="url(#cordShadow)" />
  <path d="M 675 53 C 678.6 27, 693 27, 691.2 59" stroke="url(#cordGrad)" stroke-width="8" stroke-linecap="round" filter="url(#cordShadow)" />
  <path d="M 687 53 C 690.6 27, 705 27, 703.2 59" stroke="url(#cordGrad)" stroke-width="8" stroke-linecap="round" filter="url(#cordShadow)" />
  <path d="M 699 53 C 702.6 27, 717 27, 715.2 59" stroke="url(#cordGrad)" stroke-width="8" stroke-linecap="round" filter="url(#cordShadow)" />
  <path d="M 711 53 C 714.6 27, 729 27, 727.2 59" stroke="url(#cordGrad)" stroke-width="8" stroke-linecap="round" filter="url(#cordShadow)" />
  <path d="M 723 53 C 726.6 27, 741 27, 739.2 59" stroke="url(#cordGrad)" stroke-width="8" stroke-linecap="round" filter="url(#cordShadow)" />
  <path d="M 735 53 C 738.6 27, 753 27, 751.2 59" stroke="url(#cordGrad)" stroke-width="8" stroke-linecap="round" filter="url(#cordShadow)" />
  <path d="M 747 53 C 750.6 27, 765 27, 763.2 59" stroke="url(#cordGrad)" stroke-width="8" stroke-linecap="round" filter="url(#cordShadow)" />
  <path d="M 759 53 C 762.6 27, 777 27, 775.2 59" stroke="url(#cordGrad)" stroke-width="8" stroke-linecap="round" filter="url(#cordShadow)" />
  <path d="M 771 53 C 774.6 27, 789 27, 787.2 59" stroke="url(#cordGrad)" stroke-width="8" stroke-linecap="round" filter="url(#cordShadow)" />
  <path d="M 783 53 C 786.6 27, 801 27, 799.2 59" stroke="url(#cordGrad)" stroke-width="8" stroke-linecap="round" filter="url(#cordShadow)" />
  <path d="M 795 53 C 798.6 27, 813 27, 811.2 59" stroke="url(#cordGrad)" stroke-width="8" stroke-linecap="round" filter="url(#cordShadow)" />
  <path d="M 807 53 C 810.6 27, 825 27, 823.2 59" stroke="url(#cordGrad)" stroke-width="8" stroke-linecap="round" filter="url(#cordShadow)" />
  <path d="M 819 53 C 822.6 27, 837 27, 835.2 59" stroke="url(#cordGrad)" stroke-width="8" stroke-linecap="round" filter="url(#cordShadow)" />
  <path d="M 831 53 C 834.6 27, 849 27, 847.2 59" stroke="url(#cordGrad)" stroke-width="8" stroke-linecap="round" filter="url(#cordShadow)" />
  <path d="M 843 53 C 846.6 27, 861 27, 859.2 59" stroke="url(#cordGrad)" stroke-width="8" stroke-linecap="round" filter="url(#cordShadow)" />
  <path d="M 855 53 C 858.6 27, 873 27, 871.2 59" stroke="url(#cordGrad)" stroke-width="8" stroke-linecap="round" filter="url(#cordShadow)" />
  <path d="M 867 53 C 870.6 27, 885 27, 883.2 59" stroke="url(#cordGrad)" stroke-width="8" stroke-linecap="round" filter="url(#cordShadow)" />
  <path d="M 879 53 C 882.6 27, 897 27, 895.2 59" stroke="url(#cordGrad)" stroke-width="8" stroke-linecap="round" filter="url(#cordShadow)" />
  <path d="M 891 53 C 894.6 27, 909 27, 907.2 59" stroke="url(#cordGrad)" stroke-width="8" stroke-linecap="round" filter="url(#cordShadow)" />
  <path d="M 903 53 C 906.6 27, 921 27, 919.2 59" stroke="url(#cordGrad)" stroke-width="8" stroke-linecap="round" filter="url(#cordShadow)" />
  <path d="M 915 53 C 918.6 27, 933 27, 931.2 59" stroke="url(#cordGrad)" stroke-width="8" stroke-linecap="round" filter="url(#cordShadow)" />
  <path d="M 927 53 C 930.6 27, 945 27, 943.2 59" stroke="url(#cordGrad)" stroke-width="8" stroke-linecap="round" filter="url(#cordShadow)" />
  <path d="M 939 53 C 942.6 27, 957 27, 955.2 59" stroke="url(#cordGrad)" stroke-width="8" stroke-linecap="round" filter="url(#cordShadow)" />
  <path d="M 951 53 C 954.6 27, 969 27, 967.2 59" stroke="url(#cordGrad)" stroke-width="8" stroke-linecap="round" filter="url(#cordShadow)" />
  <path d="M 963 53 C 966.6 27, 981 27, 979.2 59" stroke="url(#cordGrad)" stroke-width="8" stroke-linecap="round" filter="url(#cordShadow)" />
  <path d="M 975 53 C 978.6 27, 993 27, 991.2 59" stroke="url(#cordGrad)" stroke-width="8" stroke-linecap="round" filter="url(#cordShadow)" />
  <path d="M 987 53 C 990.6 27, 1005 27, 1003.2 59" stroke="url(#cordGrad)" stroke-width="8" stroke-linecap="round" filter="url(#cordShadow)" />
  <path d="M 999 53 C 1002.6 27, 1017 27, 1015.2 59" stroke="url(#cordGrad)" stroke-width="8" stroke-linecap="round" filter="url(#cordShadow)" />
  <path d="M 1011 53 C 1014.6 27, 1029 27, 1027.2 59" stroke="url(#cordGrad)" stroke-width="8" stroke-linecap="round" filter="url(#cordShadow)" />
  <path d="M 1023 53 C 1026.6 27, 1041 27, 1039.2 59" stroke="url(#cordGrad)" stroke-width="8" stroke-linecap="round" filter="url(#cordShadow)" />
  <path d="M 1035 53 C 1038.6 27, 1053 27, 1051.2 59" stroke="url(#cordGrad)" stroke-width="8" stroke-linecap="round" filter="url(#cordShadow)" />
  <path d="M 1047 53 C 1050.6 27, 1065 27, 1063.2 59" stroke="url(#cordGrad)" stroke-width="8" stroke-linecap="round" filter="url(#cordShadow)" />
  <path d="M 1059 53 C 1062.6 27, 1077 27, 1075.2 59" stroke="url(#cordGrad)" stroke-width="8" stroke-linecap="round" filter="url(#cordShadow)" />
  <path d="M 1071 53 C 1074.6 27, 1089 27, 1087.2 59" stroke="url(#cordGrad)" stroke-width="8" stroke-linecap="round" filter="url(#cordShadow)" />
  <path d="M 1083 53 C 1086.6 27, 1101 27, 1099.2 59" stroke="url(#cordGrad)" stroke-width="8" stroke-linecap="round" filter="url(#cordShadow)" />
  <path d="M 1095 53 C 1098.6 27, 1113 27, 1111.2 59" stroke="url(#cordGrad)" stroke-width="8" stroke-linecap="round" filter="url(#cordShadow)" />
  <path d="M 1107 53 C 1110.6 27, 1125 27, 1123.2 59" stroke="url(#cordGrad)" stroke-width="8" stroke-linecap="round" filter="url(#cordShadow)" />
  <path d="M 1119 53 C 1122.6 27, 1137 27, 1135.2 59" stroke="url(#cordGrad)" stroke-width="8" stroke-linecap="round" filter="url(#cordShadow)" />
  <path d="M 1131 53 C 1134.6 27, 1149 27, 1147.2 59" stroke="url(#cordGrad)" stroke-width="8" stroke-linecap="round" filter="url(#cordShadow)" />
  <path d="M 1143 53 C 1146.6 27, 1161 27, 1159.2 59" stroke="url(#cordGrad)" stroke-width="8" stroke-linecap="round" filter="url(#cordShadow)" />
  <path d="M 1155 53 C 1158.6 27, 1173 27, 1171.2 59" stroke="url(#cordGrad)" stroke-width="8" stroke-linecap="round" filter="url(#cordShadow)" />
  <path d="M 1167 53 C 1170.6 27, 1185 27, 1183.2 59" stroke="url(#cordGrad)" stroke-width="8" stroke-linecap="round" filter="url(#cordShadow)" />
  <path d="M 1179 53 C 1182.6 27, 1197 27, 1195.2 59" stroke="url(#cordGrad)" stroke-width="8" stroke-linecap="round" filter="url(#cordShadow)" />
  <path d="M 1191 53 C 1194.6 27, 1209 27, 1207.2 59" stroke="url(#cordGrad)" stroke-width="8" stroke-linecap="round" filter="url(#cordShadow)" />
  <path d="M 1203 53 C 1206.6 27, 1221 27, 1219.2 59" stroke="url(#cordGrad)" stroke-width="8" stroke-linecap="round" filter="url(#cordShadow)" />
  <path d="M 1215 53 C 1218.6 27, 1233 27, 1231.2 59" stroke="url(#cordGrad)" stroke-width="8" stroke-linecap="round" filter="url(#cordShadow)" />
  <path d="M 1227 53 C 1230.6 27, 1245 27, 1243.2 59" stroke="url(#cordGrad)" stroke-width="8" stroke-linecap="round" filter="url(#cordShadow)" />
  <path d="M 1239 53 C 1242.6 27, 1257 27, 1255.2 59" stroke="url(#cordGrad)" stroke-width="8" stroke-linecap="round" filter="url(#cordShadow)" />
  <path d="M 1251 53 C 1254.6 27, 1269 27, 1267.2 59" stroke="url(#cordGrad)" stroke-width="8" stroke-linecap="round" filter="url(#cordShadow)" />
  <path d="M 1263 53 C 1266.6 27, 1281 27, 1279.2 59" stroke="url(#cordGrad)" stroke-width="8" stroke-linecap="round" filter="url(#cordShadow)" />
  <path d="M 1275 53 C 1278.6 27, 1293 27, 1291.2 59" stroke="url(#cordGrad)" stroke-width="8" stroke-linecap="round" filter="url(#cordShadow)" />
  <path d="M 1287 53 C 1290.6 27, 1305 27, 1303.2 59" stroke="url(#cordGrad)" stroke-width="8" stroke-linecap="round" filter="url(#cordShadow)" />
  <path d="M 1299 53 C 1302.6 27, 1317 27, 1315.2 59" stroke="url(#cordGrad)" stroke-width="8" stroke-linecap="round" filter="url(#cordShadow)" />
  <path d="M 1311 53 C 1314.6 27, 1329 27, 1327.2 59" stroke="url(#cordGrad)" stroke-width="8" stroke-linecap="round" filter="url(#cordShadow)" />
  <path d="M 1323 53 C 1326.6 27, 1341 27, 1339.2 59" stroke="url(#cordGrad)" stroke-width="8" stroke-linecap="round" filter="url(#cordShadow)" />
  <path d="M 1335 53 C 1338.6 27, 1353 27, 1351.2 59" stroke="url(#cordGrad)" stroke-width="8" stroke-linecap="round" filter="url(#cordShadow)" />
  <path d="M 1347 53 C 1350.6 27, 1365 27, 1363.2 59" stroke="url(#cordGrad)" stroke-width="8" stroke-linecap="round" filter="url(#cordShadow)" />
  <path d="M 1359 53 C 1362.6 27, 1377 27, 1375.2 59" stroke="url(#cordGrad)" stroke-width="8" stroke-linecap="round" filter="url(#cordShadow)" />
  <path d="M 1371 53 C 1374.6 27, 1389 27, 1387.2 59" stroke="url(#cordGrad)" stroke-width="8" stroke-linecap="round" filter="url(#cordShadow)" />
  <path d="M 1383 53 C 1386.6 27, 1401 27, 1399.2 59" stroke="url(#cordGrad)" stroke-width="8" stroke-linecap="round" filter="url(#cordShadow)" />
  <path d="M 1395 53 C 1398.6 27, 1413 27, 1411.2 59" stroke="url(#cordGrad)" stroke-width="8" stroke-linecap="round" filter="url(#cordShadow)" />
  <path d="M 1407 53 C 1410.6 27, 1425 27, 1423.2 59" stroke="url(#cordGrad)" stroke-width="8" stroke-linecap="round" filter="url(#cordShadow)" />
</svg>